<?xml version="1.0" standalone="no"?>
<!DOCTYPE svg PUBLIC "-//W3C//DTD SVG 20010904//EN"
 "http://www.w3.org/TR/2001/REC-SVG-20010904/DTD/svg10.dtd">
<svg version="1.0" xmlns="http://www.w3.org/2000/svg"
 width="1280.000000pt" height="1280.000000pt" viewBox="0 0 1280.000000 1280.000000"
 preserveAspectRatio="xMidYMid meet">
<metadata>
Created by potrace 1.11, written by Peter Selinger 2001-2013
</metadata>
<g transform="translate(0.000000,1280.000000) scale(0.100000,-0.100000)"
fill="#000000" stroke="none">
<path d="M5593 12029 c-5 -18 -11 -20 -42 -15 -102 16 -176 18 -195 4 -32 -25
-11 -54 87 -117 158 -102 174 -115 154 -119 -9 -2 -75 11 -146 28 l-128 32
-167 -22 c-405 -53 -780 -175 -1062 -344 -57 -34 -63 -36 -154 -36 -269 0
-713 -76 -1037 -176 -201 -62 -330 -120 -553 -249 -285 -164 -526 -295 -545
-295 -9 0 -51 9 -93 19 -43 11 -116 25 -163 31 -314 41 -818 -184 -940 -421
-34 -66 -38 -211 -9 -349 28 -138 82 -297 124 -370 46 -78 73 -141 91 -211 20
-77 19 -118 -6 -192 -19 -54 -21 -80 -18 -207 2 -80 0 -307 -5 -505 -7 -321
-10 -364 -27 -397 -26 -51 -64 -187 -89 -315 -11 -59 -32 -153 -45 -208 -25
-104 -45 -239 -45 -311 0 -23 -16 -93 -35 -154 -66 -209 -165 -606 -274 -1090
l-59 -265 -26 -455 c-15 -250 -31 -462 -35 -470 -5 -9 -40 -182 -80 -385 l-71
-370 142 -754 143 -753 190 -115 189 -115 26 30 25 31 35 -17 c26 -13 35 -23
35 -42 0 -20 11 -31 60 -57 84 -45 305 -132 345 -135 30 -3 34 0 44 32 l11 35
103 -19 102 -19 0 -43 c0 -50 -16 -43 185 -83 188 -37 327 -56 348 -48 12 4
17 18 17 42 0 19 4 35 10 35 24 0 296 -64 306 -71 6 -5 14 -27 18 -50 5 -28
13 -42 29 -48 12 -5 168 -36 346 -70 266 -51 326 -60 336 -49 7 7 80 102 164
210 l151 197 0 87 0 87 127 -6 127 -7 235 71 c166 50 244 69 266 65 69 -13
378 -207 800 -502 121 -85 242 -171 269 -191 l50 -38 54 -217 54 -218 145 -75
c79 -41 151 -75 158 -75 8 0 21 14 30 30 9 17 17 30 19 30 6 0 251 -101 255
-106 2 -2 -2 -17 -9 -34 -11 -26 -11 -34 1 -45 10 -9 330 -129 456 -170 13 -4
63 42 63 57 0 14 25 8 149 -40 118 -45 124 -49 135 -82 10 -33 14 -35 76 -47
147 -26 450 -55 464 -44 7 6 16 30 20 52 5 32 10 39 24 35 9 -2 65 -7 124 -11
106 -7 107 -7 110 -33 l3 -27 320 -3 320 -3 30 36 30 35 158 6 c154 7 157 7
157 -14 0 -59 19 -63 150 -31 87 21 334 73 1050 223 1104 231 1303 284 1907
510 439 164 727 319 874 472 85 89 113 138 143 254 62 233 90 477 91 775 0
200 -2 236 -18 278 -23 58 -44 71 -95 57 -20 -5 -41 -10 -47 -10 -6 0 -10 51
-11 133 -1 149 -21 255 -73 370 -71 159 -205 303 -365 392 -116 65 -756 261
-1416 436 -122 32 -637 286 -841 415 l-36 22 14 69 c43 202 -45 343 -214 343
-49 0 -213 -35 -277 -59 -22 -9 -40 2 -166 93 l-142 103 -3 52 c-6 83 -58 146
-137 166 -21 5 -28 4 -28 -8 0 -23 -41 -69 -57 -63 -8 3 -11 1 -8 -4 4 -6 -10
-10 -34 -10 -22 0 -43 5 -47 12 -5 7 -3 8 6 3 8 -5 11 -4 6 3 -4 6 -13 9 -21
6 -16 -6 -45 43 -45 78 -1 15 -17 36 -44 58 -24 19 -108 91 -187 159 -79 68
-186 158 -236 199 -71 57 -93 80 -93 98 0 53 -48 125 -86 130 -12 2 -13 -1 -3
-12 6 -7 16 -11 22 -7 6 4 8 0 4 -11 -4 -10 -3 -15 3 -11 6 4 10 -8 10 -29 0
-43 -44 -100 -72 -93 -10 3 -16 1 -12 -4 3 -5 -9 -9 -26 -9 -18 0 -29 4 -25
10 3 6 -1 7 -10 4 -28 -11 -75 44 -75 86 0 46 23 78 73 100 l41 19 -29 6 c-84
19 -126 44 -330 197 -121 90 -232 172 -247 182 -16 10 -28 25 -28 33 0 18 -39
111 -58 138 -14 20 -14 20 -8 -1 7 -24 -16 -50 -35 -38 -7 4 -9 3 -6 -3 7 -11
-14 -23 -39 -23 -9 0 -12 5 -8 11 4 7 0 9 -13 5 -22 -7 -56 24 -67 61 -8 25
19 93 37 93 5 0 2 -10 -9 -22 l-19 -23 22 18 c12 11 19 25 17 32 -7 17 -123
53 -199 63 l-60 7 -68 100 c-38 55 -80 120 -94 144 -25 41 -26 44 -9 71 l16
29 -37 3 c-35 3 -38 6 -101 118 -72 130 -157 310 -196 419 l-26 74 19 53 20
53 -39 12 c-34 10 -42 18 -50 48 -22 83 -30 135 -25 149 3 9 1 18 -4 21 -10 7
-36 184 -47 322 -6 84 -6 86 17 92 13 4 45 7 71 7 26 0 49 3 51 8 2 4 -6 126
-18 271 l-21 264 -65 56 c-137 120 -140 123 -146 170 l-6 44 64 -7 c228 -25
470 -85 564 -141 22 -13 67 -47 100 -75 103 -88 177 -117 325 -126 109 -7 164
4 210 42 63 54 74 104 54 249 -11 76 -14 142 -9 215 5 90 4 114 -15 172 -27
89 -94 161 -225 246 -55 35 -129 93 -165 128 -106 103 -215 134 -350 100 -154
-39 -278 -116 -490 -306 l-72 -64 78 123 79 123 234 99 c128 54 236 101 239
103 6 7 -68 185 -80 192 -4 3 -129 -46 -277 -108 l-268 -113 -102 -163 c-57
-90 -105 -162 -106 -160 -6 6 -25 316 -35 578 -27 706 -57 830 -249 1029 -62
64 -89 75 -98 40z m1357 -1644 c38 -35 113 -93 167 -128 54 -36 112 -79 128
-96 l30 -32 1 -152 c0 -84 4 -176 8 -204 l9 -53 -40 0 c-73 0 -134 27 -217 94
-87 71 -178 119 -301 160 -93 30 -245 62 -340 72 -50 5 -65 10 -61 20 4 10 -3
14 -21 14 l-27 0 35 36 c62 65 245 218 302 252 82 50 166 81 215 82 39 0 49
-6 112 -65z m-2981 -981 c17 -4 29 -10 26 -13 -2 -4 6 -7 18 -7 12 1 22 -4 22
-11 0 -6 4 -15 9 -20 5 -5 6 -3 2 5 -11 19 9 14 28 -7 10 -11 15 -24 12 -30
-4 -5 -1 -13 5 -17 8 -5 10 -2 5 7 -4 8 0 5 8 -5 9 -12 13 -28 10 -39 -4 -13
-2 -17 5 -13 6 4 11 1 11 -6 0 -7 3 -24 5 -38 5 -22 4 -23 -5 -5 -8 16 -9 12
-5 -17 11 -70 -53 -155 -135 -179 -46 -14 -127 -1 -122 20 1 7 -2 9 -9 6 -24
-15 -107 90 -95 121 3 9 1 12 -4 9 -16 -10 -12 71 6 113 31 76 97 124 160 117
32 -4 34 -3 14 4 -30 11 -14 13 29 5z m127 -1393 c-4 -5 2 -7 11 -5 10 3 27
-2 38 -11 11 -9 14 -13 6 -9 -9 4 -12 3 -7 -4 4 -6 13 -9 21 -6 21 9 78 -75
70 -104 -3 -13 -2 -21 3 -18 12 7 20 -43 14 -84 -2 -16 -8 -27 -14 -24 -5 3
-6 -4 -3 -18 4 -14 0 -31 -10 -43 -9 -11 -13 -13 -9 -5 4 9 3 12 -2 7 -5 -5
-9 -16 -9 -25 0 -9 -6 -16 -13 -14 -8 1 -11 -2 -8 -7 8 -13 -21 -34 -35 -25
-7 4 -9 3 -6 -3 9 -14 -18 -24 -40 -16 -11 4 -14 3 -9 -5 5 -9 -7 -12 -44 -12
-37 0 -49 3 -44 12 5 8 2 9 -11 4 -42 -16 -144 97 -132 145 3 10 1 17 -4 13
-5 -3 -9 18 -9 46 0 28 4 49 9 46 5 -4 7 2 4 13 -10 37 48 112 112 145 32 17
130 22 121 7z m70 -970 c-4 -5 2 -7 12 -4 29 7 105 -84 133 -159 13 -35 24
-82 24 -105 0 -22 3 -39 8 -36 4 2 7 -44 7 -102 0 -75 -3 -104 -11 -99 -8 4
-9 -1 -4 -16 10 -30 -3 -92 -17 -84 -7 4 -8 2 -4 -5 11 -18 -2 -63 -16 -55 -7
4 -8 3 -4 -5 11 -17 -39 -96 -81 -128 -28 -22 -47 -28 -84 -28 -26 0 -54 6
-61 13 -11 11 -9 12 7 7 16 -5 17 -5 5 3 -8 6 -18 8 -23 5 -5 -3 -19 5 -33 18
-25 23 -33 46 -12 33 7 -4 8 -3 4 5 -4 6 -11 9 -16 6 -10 -6 -44 54 -36 63 3
3 6 -1 6 -8 0 -7 2 -11 5 -8 8 8 -6 39 -15 33 -12 -7 -21 25 -14 48 4 12 2 17
-4 13 -14 -8 -26 54 -17 86 5 18 4 20 -4 8 -8 -11 -11 13 -11 88 0 75 3 101
12 96 7 -5 8 -3 4 5 -10 16 3 103 14 96 4 -3 6 3 3 14 -10 37 66 159 121 192
31 19 112 27 102 10z m1440 -810 c-4 -5 2 -7 12 -5 23 7 105 -63 98 -83 -3 -8
-2 -11 3 -8 12 7 24 -31 15 -46 -4 -8 -3 -9 4 -5 15 9 26 -55 18 -110 -10 -75
-58 -149 -118 -180 -33 -17 -123 -19 -112 -3 4 8 -1 9 -15 4 -17 -5 -31 3 -65
37 -46 46 -77 122 -75 182 2 29 2 28 10 -9 6 -33 7 -30 4 20 -6 90 32 159 110
199 32 17 120 22 111 7z m888 -612 c-4 -7 0 -9 14 -5 19 6 82 -17 82 -30 0 -3
-4 -2 -10 1 -16 10 -11 -1 7 -16 11 -10 14 -10 9 -1 -4 6 -3 12 2 12 15 0 34
-28 28 -39 -4 -5 -1 -13 5 -17 8 -5 9 -3 4 7 -7 12 -6 12 9 0 10 -8 15 -23 13
-33 -3 -10 -1 -16 3 -13 11 7 30 -60 30 -105 0 -27 -3 -32 -11 -20 -8 11 -9 7
-4 -17 12 -62 -88 -192 -137 -179 -10 2 -15 0 -12 -6 4 -6 -9 -7 -33 -3 -28 5
-34 4 -23 -4 13 -9 13 -11 -2 -11 -10 0 -18 4 -18 8 0 4 -16 8 -35 8 -57 0
-163 102 -151 146 2 10 0 16 -5 12 -5 -3 -9 1 -9 8 0 7 -2 31 -5 53 -4 37 -4
37 5 10 7 -24 8 -19 4 23 -3 36 -1 52 5 47 6 -3 8 0 5 9 -7 19 19 69 54 101
41 40 81 57 111 51 19 -5 22 -4 11 4 -11 7 -6 10 23 10 25 0 36 -4 31 -11z
m3277 -192 c41 -27 70 -82 62 -119 -3 -15 -9 -25 -14 -22 -5 3 -6 -1 -3 -9 7
-20 -49 -65 -91 -73 -44 -8 -131 31 -129 58 1 10 -2 16 -6 13 -4 -3 -11 2 -14
11 -25 65 38 167 90 147 12 -4 15 -3 10 5 -13 22 59 13 95 -11z m-2333 -457
c7 0 10 -4 7 -10 -3 -6 1 -7 10 -4 36 14 136 -103 121 -142 -3 -8 -2 -13 3
-10 11 7 21 -28 21 -80 0 -100 -57 -200 -134 -235 -50 -23 -85 -24 -134 -4
-86 37 -124 103 -128 225 -2 84 10 155 26 145 4 -3 7 3 6 13 0 9 4 16 10 15 6
-1 24 12 40 30 l29 32 -34 -30 c-18 -16 -32 -24 -29 -16 10 34 114 85 153 76
11 -3 26 -5 33 -5z m-241 -262 c-3 -7 -5 -2 -5 12 0 14 2 19 5 13 2 -7 2 -19
0 -25z m1057 -294 c9 -3 13 -10 10 -15 -3 -5 1 -6 9 -3 38 14 135 -114 122
-163 -4 -18 -2 -23 6 -17 20 12 5 -125 -19 -172 -23 -45 -80 -100 -119 -115
-35 -13 -116 -12 -107 2 4 7 0 9 -12 5 -47 -15 -152 101 -139 152 4 17 2 22
-6 16 -9 -5 -10 4 -5 37 5 33 4 40 -5 29 -9 -13 -10 -12 -5 3 3 10 6 30 6 43
0 16 4 23 11 18 7 -4 9 0 5 14 -6 19 17 82 30 82 3 0 2 -5 -2 -12 -4 -7 -3 -8
5 -4 6 4 9 12 5 17 -8 14 27 51 43 45 7 -3 15 0 19 6 4 7 3 8 -4 4 -7 -4 -12
-4 -12 -1 0 23 123 45 164 29z"/>
<path d="M3814 9338 l-29 -33 33 29 c17 17 32 31 32 33 0 8 -8 1 -36 -29z"/>
<path d="M3790 9097 c0 -2 15 -16 33 -33 l32 -29 -29 33 c-28 30 -36 37 -36
29z"/>
<path d="M4064 9068 l-19 -23 23 19 c21 18 27 26 19 26 -2 0 -12 -10 -23 -22z"/>
<path d="M3965 7990 c-3 -6 1 -7 9 -4 18 7 21 14 7 14 -6 0 -13 -4 -16 -10z"/>
<path d="M3914 7948 l-29 -33 33 29 c17 17 32 31 32 33 0 8 -8 1 -36 -29z"/>
<path d="M4206 7915 c24 -39 24 -40 24 -28 0 6 -9 21 -21 34 l-20 24 17 -30z"/>
<path d="M3920 7645 c19 -19 36 -35 39 -35 3 0 -10 16 -29 35 -19 19 -36 35
-39 35 -3 0 10 -16 29 -35z"/>
<path d="M4029 6993 l-24 -28 28 24 c25 23 32 31 24 31 -2 0 -14 -12 -28 -27z"/>
<path d="M4200 7017 c0 -2 15 -16 33 -33 l32 -29 -29 33 c-28 30 -36 37 -36
29z"/>
<path d="M4271 6930 c14 -31 19 -36 19 -24 0 6 -7 19 -16 30 -14 18 -14 18 -3
-6z"/>
<path d="M3931 6484 c0 -11 3 -14 6 -6 3 7 2 16 -1 19 -3 4 -6 -2 -5 -13z"/>
<path d="M4224 6268 l-19 -23 23 19 c21 18 27 26 19 26 -2 0 -12 -10 -23 -22z"/>
<path d="M5485 6210 c-3 -6 1 -7 9 -4 18 7 21 14 7 14 -6 0 -13 -4 -16 -10z"/>
<path d="M5444 6178 l-19 -23 23 19 c21 18 27 26 19 26 -2 0 -12 -10 -23 -22z"/>
<path d="M5675 6180 c10 -11 20 -20 23 -20 3 0 -3 9 -13 20 -10 11 -20 20 -23
20 -3 0 3 -9 13 -20z"/>
<path d="M5743 6005 c0 -27 2 -38 4 -22 2 15 2 37 0 50 -2 12 -4 0 -4 -28z"/>
<path d="M5674 5838 l-29 -33 33 29 c30 28 37 36 29 36 -2 0 -16 -15 -33 -32z"/>
<path d="M5445 5840 c10 -11 20 -20 23 -20 3 0 -3 9 -13 20 -10 11 -20 20 -23
20 -3 0 3 -9 13 -20z"/>
<path d="M6332 5563 l-38 -38 36 30 c19 16 39 33 45 37 5 5 6 8 2 8 -4 0 -25
-17 -45 -37z"/>
<path d="M6671 5414 c0 -11 3 -14 6 -6 3 7 2 16 -1 19 -3 4 -6 -2 -5 -13z"/>
<path d="M6590 5208 c-25 -22 -36 -36 -25 -30 19 10 84 72 74 72 -2 -1 -24
-19 -49 -42z"/>
<path d="M6320 5215 c13 -14 26 -25 28 -25 3 0 -5 11 -18 25 -13 14 -26 25
-28 25 -3 0 5 -11 18 -25z"/>
<path d="M6367 5179 c7 -7 15 -10 18 -7 3 3 -2 9 -12 12 -14 6 -15 5 -6 -5z"/>
<path d="M9609 5403 c-13 -16 -12 -17 4 -4 9 7 17 15 17 17 0 8 -8 3 -21 -13z"/>
<path d="M9785 5400 c10 -11 20 -20 23 -20 3 0 -3 9 -13 20 -10 11 -20 20 -23
20 -3 0 3 -9 13 -20z"/>
<path d="M9698 5213 c6 -2 18 -2 25 0 6 3 1 5 -13 5 -14 0 -19 -2 -12 -5z"/>
<path d="M7500 4926 c0 -2 8 -10 18 -17 15 -13 16 -12 3 4 -13 16 -21 21 -21
13z"/>
<path d="M7582 4750 c0 -14 2 -19 5 -12 2 6 2 18 0 25 -3 6 -5 1 -5 -13z"/>
<path d="M7582 4700 c0 -14 2 -19 5 -12 2 6 2 18 0 25 -3 6 -5 1 -5 -13z"/>
<path d="M7509 4533 l-24 -28 28 24 c25 23 32 31 24 31 -2 0 -14 -12 -28 -27z"/>
<path d="M7260 4546 c0 -2 8 -10 18 -17 15 -13 16 -12 3 4 -13 16 -21 21 -21
13z"/>
<path d="M8320 4355 c13 -14 26 -25 28 -25 3 0 -5 11 -18 25 -13 14 -26 25
-28 25 -3 0 5 -11 18 -25z"/>
<path d="M8324 3988 l-29 -33 33 29 c17 17 32 31 32 33 0 8 -8 1 -36 -29z"/>
<path d="M8050 3996 c0 -2 8 -10 18 -17 15 -13 16 -12 3 4 -13 16 -21 21 -21
13z"/>
<path d="M8270 3950 c-9 -6 -10 -10 -3 -10 6 0 15 5 18 10 8 12 4 12 -15 0z"/>
<path d="M7290 7246 c0 -2 8 -10 18 -17 15 -13 16 -12 3 4 -13 16 -21 21 -21
13z"/>
<path d="M7161 7174 c0 -11 3 -14 6 -6 3 7 2 16 -1 19 -3 4 -6 -2 -5 -13z"/>
<path d="M7185 7120 c10 -11 20 -20 23 -20 3 0 -3 9 -13 20 -10 11 -20 20 -23
20 -3 0 3 -9 13 -20z"/>
<path d="M7939 6533 c-13 -16 -12 -17 4 -4 16 13 21 21 13 21 -2 0 -10 -8 -17
-17z"/>
<path d="M7945 6410 c10 -11 20 -20 23 -20 3 0 -3 9 -13 20 -10 11 -20 20 -23
20 -3 0 3 -9 13 -20z"/>
<path d="M8089 6413 c-13 -16 -12 -17 4 -4 9 7 17 15 17 17 0 8 -8 3 -21 -13z"/>
<path d="M8916 5863 c-6 -14 -5 -15 5 -6 7 7 10 15 7 18 -3 3 -9 -2 -12 -12z"/>
</g>
</svg>
